<?xml version="1.0" encoding="utf-8"?>
<!-- Generator: Adobe Illustrator 23.0.3, SVG Export Plug-In . SVG Version: 6.00 Build 0)  -->
<svg version="1.1" id="Layer_1" xmlns="http://www.w3.org/2000/svg" xmlns:xlink="http://www.w3.org/1999/xlink" x="0px" y="0px"
	 viewBox="0 0 612 792" style="enable-background:new 0 0 612 792;" xml:space="preserve">
<style type="text/css">
	.st0{fill:none;}
</style>
<g>
	<path d="M433.63,314.19h-26.59v26.61h-18.57v-26.61h-26.59v-16.73h26.59v-26.61h18.57v26.61h26.59V314.19z"/>
</g>
<g>
	<path class="st0" d="M351.25,318.95c-37.65,0.01-75.29,0.02-112.94-0.04c-2.27,0-3.18,0.78-3.91,2.82
		c-6.69,18.74-13.48,37.43-20.23,56.15c-0.34,0.93-0.58,1.9-0.93,3.07c62.26,0,124.21,0,186.41,0c-0.18-0.73-0.26-1.22-0.42-1.68
		c-3.64-10.09-7.29-20.18-10.93-30.27h-37.04V318.95z"/>
	<path class="st0" d="M238.78,401.69c-4.72-0.06-9.44-0.01-14.17-0.01c-4.83,0-9.65-0.05-14.48,0.01
		c-6.94,0.09-12.02,4.83-12.19,11.27c-0.17,6.63,4.71,11.82,11.79,11.97c9.85,0.2,19.71,0.21,29.56,0
		c7.08-0.15,11.88-5.33,11.7-12.02C250.84,406.46,245.77,401.77,238.78,401.69z"/>
	<path class="st0" d="M388.49,401.68c-4.83,0-9.65-0.06-14.48,0.01c-6.8,0.1-11.84,4.75-12.08,11.04
		c-0.24,6.61,4.33,11.93,11.23,12.13c10.15,0.3,20.33,0.29,30.48,0.01c6.9-0.19,11.58-5.52,11.33-12.06
		c-0.23-6.3-5.26-11.01-12.02-11.12C398.14,401.61,393.31,401.68,388.49,401.68z"/>
	<path d="M399.22,379.27c0.17,0.46,0.24,0.95,0.42,1.68c-62.2,0-124.15,0-186.41,0c0.35-1.18,0.59-2.14,0.93-3.07
		c6.75-18.71,13.55-37.41,20.23-56.15c0.73-2.05,1.64-2.83,3.91-2.82c37.65,0.06,75.29,0.06,112.94,0.04V292.7
		c-39.11-0.03-78.22-0.03-117.33,0.02c-11.07,0.01-18.66,5.5-22.47,15.88c-3.53,9.63-6.98,19.29-10.47,28.93
		c-2.71,7.47-5.42,14.93-8.36,23.03c-0.62-2.01-1.03-3.37-1.45-4.72c-0.93-3-2.96-4.7-6.09-4.73c-9.45-0.07-18.9-0.06-28.36-0.01
		c-3.14,0.02-5.22,1.7-6.15,4.66c-0.73,2.33-1.31,4.71-1.95,7.07c0,2.06,0,4.11,0,6.17c0.43,1.56,0.85,3.12,1.29,4.68
		c1.67,5.93,3.11,7.01,9.38,7.01c7.6,0,15.21-0.01,22.81,0.01c0.95,0,1.9,0.11,2.9,0.17c-0.12,0.54-0.1,0.79-0.22,0.91
		c-0.21,0.21-0.49,0.37-0.77,0.5c-6.48,2.91-9.23,8.08-9.22,15c0.01,31.54-0.01,63.08,0.02,94.63c0.01,6.17,2.7,8.85,8.81,8.88
		c10.79,0.05,21.58,0.05,32.36,0c6.12-0.03,8.79-2.72,8.85-8.86c0.06-7.09,0.01-14.18,0.02-21.27c0-3.77,0-7.54,0-11.47
		c54.53,0,108.73,0,163.26,0c0,1.25,0,2.35,0,3.45c0,9.56-0.02,19.11,0.01,28.67c0.02,6.91,2.58,9.48,9.47,9.49
		c10.38,0.02,20.75,0.02,31.13,0c6.89-0.01,9.43-2.56,9.44-9.51c0.02-9.76,0.01-19.52,0.01-29.28c0-21.37-0.04-42.74,0.02-64.11
		c0.02-7.12-2.47-12.58-9.23-15.62c-0.4-0.18-0.71-0.58-1.61-1.36c1.6-0.1,2.55-0.2,3.51-0.2c8.01-0.01,16.03,0.01,24.04-0.01
		c4.61-0.01,6.33-1.49,7.8-5.82c2.18-6.41,1.86-12.7-0.27-19.02c-0.99-2.95-2.96-4.72-6.1-4.74c-9.45-0.07-18.9-0.06-28.36-0.01
		c-3.13,0.02-5.19,1.66-6.16,4.64c-0.45,1.39-0.88,2.79-1.5,4.77c-1.4-3.87-2.79-7.69-4.16-11.5h-27.84
		C391.93,359.09,395.58,369.18,399.22,379.27z M239.3,424.91c-9.85,0.21-19.71,0.2-29.56,0c-7.08-0.14-11.96-5.33-11.79-11.97
		c0.17-6.44,5.25-11.17,12.19-11.27c4.82-0.06,9.65-0.01,14.48-0.01c4.72,0,9.45-0.05,14.17,0.01c6.99,0.09,12.06,4.77,12.22,11.21
		C251.18,419.58,246.38,424.76,239.3,424.91z M414.98,412.81c0.24,6.54-4.43,11.87-11.33,12.06c-10.15,0.28-20.33,0.29-30.48-0.01
		c-6.9-0.21-11.47-5.52-11.23-12.13c0.23-6.29,5.27-10.94,12.08-11.04c4.82-0.07,9.65-0.01,14.48-0.01c4.83,0,9.65-0.06,14.48,0.02
		C409.72,401.8,414.74,406.51,414.98,412.81z"/>
	<path d="M352.5,318.95V292.7c-0.42,0-0.83,0-1.25,0v26.25C351.67,318.95,352.08,318.95,352.5,318.95z"/>
</g>
</svg>
